HIERARCHY
ROOT hip
{
  OFFSET 0 0 0
  CHANNELS 6 Xposition Yposition Zposition Zrotation Yrotation Xrotation
  JOINT abdomen
  {
    OFFSET 0 20.6881 -0.73152
    CHANNELS 3 Zrotation Xrotation Yrotation
    JOINT chest
    {
      OFFSET 0 11.7043 -0.48768
      CHANNELS 3 Zrotation Xrotation Yrotation
      JOINT neck
      {
        OFFSET 0 22.1894 -2.19456
        CHANNELS 3 Zrotation Xrotation Yrotation
        JOINT head
        {
          OFFSET -0.24384 7.07133 1.2192
          CHANNELS 3 Zrotation Xrotation Yrotation
          JOINT leftEye
          {
            OFFSET 4.14528 8.04674 8.04672
            CHANNELS 3 Zrotation Xrotation Yrotation
            End Site
            {
              OFFSET 1 0 0
            }
          }
          JOINT rightEye
          {
            OFFSET -3.6576 8.04674 8.04672
            CHANNELS 3 Zrotation Xrotation Yrotation
            End Site
            {
              OFFSET 1 0 0
            }
          }
        }
      }
      JOINT rCollar
      {
        OFFSET -2.68224 19.2634 -4.8768
        CHANNELS 3 Zrotation Xrotation Yrotation
        JOINT rShldr
        {
          OFFSET -8.77824 -1.95073 1.46304
          CHANNELS 3 Zrotation Xrotation Yrotation
          JOINT rForeArm
          {
            OFFSET -28.1742 -1.7115 0.48768
            CHANNELS 3 Zrotation Xrotation Yrotation
            JOINT rHand
            {
              OFFSET -22.5879 0.773209 7.07136
              CHANNELS 3 Zrotation Xrotation Yrotation
              JOINT rThumb1
              {
                OFFSET -1.2192 -0.487915 3.41376
                CHANNELS 3 Zrotation Xrotation Yrotation
                JOINT rThumb2
                {
                  OFFSET -3.37035 -0.52449 3.41376
                  CHANNELS 3 Zrotation Xrotation Yrotation
                  End Site
                  {
                    OFFSET -1.78271 -1.18214 1.43049
                  }
                }
              }
              JOINT rIndex1
              {
                OFFSET -7.75947 0.938293 5.60832
                CHANNELS 3 Zrotation Xrotation Yrotation
                JOINT rIndex2
                {
                  OFFSET -2.54057 -0.884171 1.56538
                  CHANNELS 3 Zrotation Xrotation Yrotation
                  End Site
                  {
                    OFFSET -1.62519 -0.234802 1.16502
                  }
                }
              }
              JOINT rMid1
              {
                OFFSET -8.24714 1.18213 3.41376
                CHANNELS 3 Zrotation Xrotation Yrotation
                JOINT rMid2
                {
                  OFFSET -3.10165 -0.590103 1.0647
                  CHANNELS 3 Zrotation Xrotation Yrotation
                  End Site
                  {
                    OFFSET -2.48547 -0.328903 0.83742
                  }
                }
              }
              JOINT rRing1
              {
                OFFSET -8.82822 0.546677 1.51678
                CHANNELS 3 Zrotation Xrotation Yrotation
                JOINT rRing2
                {
                  OFFSET -2.60934 -0.819778 -0.0198488
                  CHANNELS 3 Zrotation Xrotation Yrotation
                  End Site
                  {
                    OFFSET -2.33842 -0.294052 0.168128
                  }
                }
              }
              JOINT rPinky1
              {
                OFFSET -8.27202 -0.0477905 -0.4584
                CHANNELS 3 Zrotation Xrotation Yrotation
                JOINT rPinky2
                {
                  OFFSET -1.82734 -0.647385 -0.700984
                  CHANNELS 3 Zrotation Xrotation Yrotation
                  End Site
                  {
                    OFFSET -1.69225 -0.51767 -0.607171
                  }
                }
              }
            }
          }
        }
      }
      JOINT lCollar
      {
        OFFSET 2.68224 19.2634 -4.8768
        CHANNELS 3 Zrotation Xrotation Yrotation
        JOINT lShldr
        {
          OFFSET 8.77824 -1.95073 1.46304
          CHANNELS 3 Zrotation Xrotation Yrotation
          JOINT lForeArm
          {
            OFFSET 28.1742 -1.7115 0.48768
            CHANNELS 3 Zrotation Xrotation Yrotation
            JOINT lHand
            {
              OFFSET 22.5879 0.773209 7.07136
              CHANNELS 3 Zrotation Xrotation Yrotation
              JOINT lThumb1
              {
                OFFSET 1.2192 -0.487915 3.41376
                CHANNELS 3 Zrotation Xrotation Yrotation
                JOINT lThumb2
                {
                  OFFSET 3.37035 -0.52449 3.41376
                  CHANNELS 3 Zrotation Xrotation Yrotation
                  End Site
                  {
                    OFFSET 1.78271 -1.18214 1.43049
                  }
                }
              }
              JOINT lIndex1
              {
                OFFSET 7.75947 0.938293 5.60832
                CHANNELS 3 Zrotation Xrotation Yrotation
                JOINT lIndex2
                {
                  OFFSET 2.54057 -0.884171 1.56538
                  CHANNELS 3 Zrotation Xrotation Yrotation
                  End Site
                  {
                    OFFSET 1.62519 -0.234802 1.16502
                  }
                }
              }
              JOINT lMid1
              {
                OFFSET 8.24714 1.18213 3.41376
                CHANNELS 3 Zrotation Xrotation Yrotation
                JOINT lMid2
                {
                  OFFSET 3.10165 -0.590103 1.0647
                  CHANNELS 3 Zrotation Xrotation Yrotation
                  End Site
                  {
                    OFFSET 2.48547 -0.328903 0.83742
                  }
                }
              }
              JOINT lRing1
              {
                OFFSET 8.82822 0.546677 1.51678
                CHANNELS 3 Zrotation Xrotation Yrotation
                JOINT lRing2
                {
                  OFFSET 2.60934 -0.819778 -0.0198488
                  CHANNELS 3 Zrotation Xrotation Yrotation
                  End Site
                  {
                    OFFSET 2.33842 -0.294052 0.168128
                  }
                }
              }
              JOINT lPinky1
              {
                OFFSET 8.27202 -0.0477905 -0.4584
                CHANNELS 3 Zrotation Xrotation Yrotation
                JOINT lPinky2
                {
                  OFFSET 1.82734 -0.647385 -0.700984
                  CHANNELS 3 Zrotation Xrotation Yrotation
                  End Site
                  {
                    OFFSET 1.69225 -0.51767 -0.607171
                  }
                }
              }
            }
          }
        }
      }
    }
  }
  JOINT rButtock
  {
    OFFSET -8.77824 4.35084 1.2192
    CHANNELS 3 Zrotation Xrotation Yrotation
    JOINT rThigh
    {
      OFFSET 0 -1.70687 -2.19456
      CHANNELS 3 Zrotation Xrotation Yrotation
      JOINT rShin
      {
        OFFSET 0 -36.8199 0.73152
        CHANNELS 3 Zrotation Xrotation Yrotation
        JOINT rFoot
        {
          OFFSET 0.73152 -45.1104 -5.12064
          CHANNELS 3 Zrotation Xrotation Yrotation
          End Site
          {
            OFFSET -1.1221 -3.69964 12.103
          }
        }
      }
    }
  }
  JOINT lButtock
  {
    OFFSET 8.77824 4.35084 1.2192
    CHANNELS 3 Zrotation Xrotation Yrotation
    JOINT lThigh
    {
      OFFSET 0 -1.70687 -2.19456
      CHANNELS 3 Zrotation Xrotation Yrotation
      JOINT lShin
      {
        OFFSET 0 -36.8199 0.73152
        CHANNELS 3 Zrotation Xrotation Yrotation
        JOINT lFoot
        {
          OFFSET -0.73152 -45.1104 -5.12064
          CHANNELS 3 Zrotation Xrotation Yrotation
          End Site
          {
            OFFSET 1.1221 -3.69964 12.103
          }
        }
      }
    }
  }
}
MOTION
Frames:	6
Frame Time:	0.00833333
-3.01177 82.4185 29.3089 3.3254 -20.625 2.9553 17.2425 53.8872 -15.6298 3.4876 -0.353037 -2.01429 -7.8307 11.1601 -8.19962 9.81352 15.1722 -16.3656 -0.0 0.0 0.0 -0.0 0.0 0.0 -2.96799e-13 -6.11353e-14 1.83957e-13 -42.9127 61.5817 125.29 -9.06108 -58.6664 136.843 -0.229697 13.5159 1.936 -2.59424e-09 -6.9202e-09 -1.34502e-09 -4.49756e-09 -1.20341e-08 -2.299e-09 -2.59423e-09 -6.92019e-09 -1.34502e-09 7.73091 5.47488 0.417314 -2.59424e-09 -6.9202e-09 -1.34502e-09 2.90554 0.965183 0.102902 -2.59423e-09 -6.9202e-09 -1.34502e-09 10.2786 0.731801 0.0259123 -2.59424e-09 -6.92019e-09 -1.34501e-09 2.22167 -0.733487 -0.20892 -2.96898e-13 -6.11677e-14 1.83667e-13 13.1568 53.6419 -110.442 17.5099 -55.0458 -119.964 0.721312 -23.3816 3.48376 1.31245e-09 -1.31219e-10 -2.84644e-10 2.27466e-09 -2.07181e-10 -4.67489e-10 1.31245e-09 -1.31216e-10 -2.84635e-10 -7.73091 5.47488 -0.417314 1.31245e-09 -1.31221e-10 -2.84648e-10 -2.90554 0.965183 -0.102902 1.31245e-09 -1.31219e-10 -2.8465e-10 -10.2786 0.731801 -0.0259123 1.31246e-09 -1.31216e-10 -2.84657e-10 -2.22167 -0.733487 0.20892 -2.03217e-16 0.0 -3.88251e-19 -8.80199 -18.3129 12.1573 -0.0984918 19.8493 0.328881 -1.37917 -10.7044 -5.44377 2.03217e-16 0.0 3.88251e-19 6.39332 -18.1308 13.9709 0.115283 30.9988 -0.808845 4.25565 -16.2002 12.9278
-2.98362 82.4372 29.3584 3.4054 -20.6054 2.9818 17.1902 53.8609 -15.603 3.45433 -0.43556 -2.01138 -8.61803 11.4439 -8.45968 9.61457 15.2401 -16.7726 -0.0 0.0 0.0 -0.0 0.0 0.0 -2.49653e-13 -7.3738e-14 1.15997e-13 -43.1464 61.3991 125.548 -8.97929 -58.6904 136.994 -0.23788 13.7496 1.9708 -2.05088e-09 -5.68019e-09 -7.48962e-10 -3.55344e-09 -9.86778e-09 -1.27402e-09 -2.05087e-09 -5.68018e-09 -7.48966e-10 7.73091 5.47488 0.417314 -2.05088e-09 -5.68019e-09 -7.48963e-10 2.90554 0.965183 0.102902 -2.05087e-09 -5.68019e-09 -7.4896e-10 10.2786 0.731801 0.0259123 -2.05088e-09 -5.68019e-09 -7.48954e-10 2.22167 -0.733487 -0.20892 -2.49717e-13 -7.37607e-14 1.15739e-13 13.1901 53.5544 -110.502 17.5562 -55.0178 -119.862 0.698683 -23.0422 3.42705 7.78093e-10 1.42701e-10 1.32044e-10 1.34258e-09 2.57218e-10 2.44509e-10 7.78085e-10 1.42706e-10 1.32053e-10 -7.73091 5.47488 -0.417314 7.78094e-10 1.42701e-10 1.32038e-10 -2.90554 0.965183 -0.102902 7.78087e-10 1.42703e-10 1.32037e-10 -10.2786 0.731801 -0.0259123 7.78094e-10 1.42705e-10 1.32026e-10 -2.22167 -0.733487 0.20892 -2.03217e-16 0.0 -3.88251e-19 -8.87999 -18.3038 12.1585 -0.098144 19.7852 0.327869 -1.38837 -10.6922 -5.48352 2.03217e-16 0.0 3.88251e-19 6.27247 -18.1182 13.8688 0.114009 30.914 -0.807363 4.28892 -16.1864 13.0356
-2.96581 82.455 29.3983 3.4292 -20.5712 3.023 17.1468 53.8427 -15.5582 3.43321 -0.520306 -2.00194 -9.27791 11.6771 -8.66338 9.38824 15.2785 -17.0768 -0.0 0.0 0.0 -0.0 0.0 0.0 -2.12046e-13 -9.39951e-14 4.89282e-14 -43.214 61.2377 125.628 -8.96527 -58.6953 137.02 -0.244733 13.9463 2.0001 -1.59441e-09 -4.79626e-09 -4.46664e-11 -2.75908e-09 -8.31619e-09 -6.11448e-11 -1.59441e-09 -4.79625e-09 -4.46719e-11 7.73091 5.47488 0.417314 -1.59441e-09 -4.79626e-09 -4.46669e-11 2.90554 0.965183 0.102902 -1.59441e-09 -4.79626e-09 -4.46637e-11 10.2786 0.731801 0.0259123 -1.59442e-09 -4.79626e-09 -4.46553e-11 2.22167 -0.733487 -0.20892 -2.12078e-13 -9.40058e-14 4.87081e-14 13.1773 53.4592 -110.513 17.5802 -55.0034 -119.809 0.671797 -22.626 3.35802 1.24885e-10 5.60919e-10 7.12107e-10 2.01541e-10 9.6897e-10 1.23747e-09 1.24878e-10 5.60924e-10 7.12117e-10 -7.73091 5.47488 -0.417314 1.24887e-10 5.60921e-10 7.12101e-10 -2.90554 0.965183 -0.102902 1.24878e-10 5.60922e-10 7.12101e-10 -10.2786 0.731801 -0.0259123 1.24886e-10 5.60923e-10 7.12086e-10 -2.22167 -0.733487 0.20892 -2.03217e-16 0.0 -3.88251e-19 -8.95621 -18.2753 12.1407 -0.0976985 19.7113 0.326708 -1.39903 -10.6792 -5.52915 2.03217e-16 0.0 3.88251e-19 6.16098 -18.1062 13.76 0.112888 30.8342 -0.805636 4.31496 -16.1659 13.1262
-2.95935 82.4707 29.4382 3.3953 -20.5048 3.0748 17.1538 53.8522 -15.5106 3.42239 -0.590529 -1.98422 -9.67016 11.8004 -8.77241 9.17788 15.3537 -17.2256 -0.0 0.0 0.0 -0.0 0.0 0.0 -1.90828e-13 -1.01778e-13 1.60022e-14 -43.219 61.1216 125.639 -8.99389 -58.6876 136.966 -0.251701 14.1407 2.02913 -1.42854e-09 -4.64907e-09 4.55121e-10 -2.46899e-09 -8.04842e-09 8.01518e-10 -1.42853e-09 -4.64907e-09 4.55115e-10 7.73091 5.47488 0.417314 -1.42853e-09 -4.64907e-09 4.55121e-10 2.90554 0.965183 0.102902 -1.42853e-09 -4.64907e-09 4.55125e-10 10.2786 0.731801 0.0259123 -1.42855e-09 -4.64908e-09 4.55134e-10 2.22167 -0.733487 -0.20892 -1.90851e-13 -1.01778e-13 1.58034e-14 13.1808 53.382 -110.526 17.5756 -55.0063 -119.819 0.654484 -22.3484 3.31232 -3.29448e-10 9.20589e-10 1.18994e-09 -5.93886e-10 1.58281e-09 2.057e-09 -3.29455e-10 9.20594e-10 1.18995e-09 -7.73091 5.47488 -0.417314 -3.29445e-10 9.20591e-10 1.18994e-09 -2.90554 0.965183 -0.102902 -3.29455e-10 9.20592e-10 1.18994e-09 -10.2786 0.731801 -0.0259123 -3.29445e-10 9.20593e-10 1.18992e-09 -2.22167 -0.733487 0.20892 -2.03217e-16 0.0 -3.88251e-19 -9.00087 -18.2028 12.1167 -0.0970567 19.6244 0.325479 -1.41551 -10.6836 -5.59151 2.03217e-16 0.0 3.88251e-19 6.09849 -18.0825 13.6676 0.112136 30.7677 -0.80339 4.31825 -16.1419 13.1514
-2.96603 82.4869 29.4728 3.2999 -20.3969 3.1298 17.2508 53.9129 -15.489 3.41947 -0.652773 -1.95908 -9.77156 11.7991 -8.77614 8.97612 15.4778 -17.1974 -0.0 0.0 0.0 -0.0 0.0 0.0 -2.03013e-13 -9.3509e-14 3.86388e-14 -43.197 61.0611 125.619 -9.06828 -58.6657 136.829 -0.258868 14.3344 2.05813 -1.83188e-09 -6.03665e-09 7.0134e-10 -3.16574e-09 -1.04503e-08 1.23233e-09 -1.83188e-09 -6.03665e-09 7.01332e-10 7.73091 5.47488 0.417314 -1.83188e-09 -6.03665e-09 7.01339e-10 2.90554 0.965183 0.102902 -1.83188e-09 -6.03665e-09 7.01342e-10 10.2786 0.731801 0.0259123 -1.83189e-09 -6.03666e-09 7.01352e-10 2.22167 -0.733487 -0.20892 -2.03068e-13 -9.34981e-14 3.84357e-14 13.1909 53.3392 -110.533 17.5334 -55.032 -119.913 0.651359 -22.296 3.30376 -5.50597e-10 1.30175e-09 1.63402e-09 -9.8613e-10 2.23752e-09 2.82246e-09 -5.50605e-10 1.30175e-09 1.63403e-09 -7.73091 5.47488 -0.417314 -5.50594e-10 1.30175e-09 1.63402e-09 -2.90554 0.965183 -0.102902 -5.50603e-10 1.30175e-09 1.63402e-09 -10.2786 0.731801 -0.0259123 -5.50591e-10 1.30175e-09 1.634e-09 -2.22167 -0.733487 0.20892 -2.03217e-16 0.0 -3.88251e-19 -8.99276 -18.0607 12.0858 -0.0960512 19.5081 0.323878 -1.4383 -10.7025 -5.67328 2.03217e-16 0.0 3.88251e-19 6.11787 -18.036 13.6111 0.111943 30.7204 -0.800346 4.28721 -16.1163 13.0755
-2.9729 82.5078 29.5071 3.2283 -20.2294 3.1252 17.406 54.0082 -15.477 3.42612 -0.712299 -1.92703 -9.65325 11.7047 -8.69482 8.7647 15.618 -17.0226 -0.0 0.0 0.0 -0.0 0.0 0.0 -2.39885e-13 -7.93269e-14 9.49197e-14 -43.092 61.0421 125.509 -9.19819 -58.6269 136.588 -0.265474 14.5113 2.08465 -2.62104e-09 -8.5238e-09 8.49342e-10 -4.53092e-09 -1.47624e-08 1.49767e-09 -2.62104e-09 -8.5238e-09 8.49333e-10 7.73091 5.47488 0.417314 -2.62105e-09 -8.52381e-09 8.49341e-10 2.90554 0.965183 0.102902 -2.62104e-09 -8.52381e-09 8.49343e-10 10.2786 0.731801 0.0259123 -2.62105e-09 -8.52381e-09 8.49352e-10 2.22167 -0.733487 -0.20892 -2.39997e-13 -7.93041e-14 9.46992e-14 13.1831 53.3138 -110.517 17.4591 -55.0768 -120.076 0.654412 -22.3441 3.31169 -6.91207e-10 1.76787e-09 2.13957e-09 -1.24086e-09 3.0403e-09 3.69602e-09 -6.91217e-10 1.76787e-09 2.13958e-09 -7.73091 5.47488 -0.417314 -6.91205e-10 1.76787e-09 2.13957e-09 -2.90554 0.965183 -0.102902 -6.91211e-10 1.76787e-09 2.13957e-09 -10.2786 0.731801 -0.0259123 -6.91198e-10 1.76787e-09 2.13956e-09 -2.22167 -0.733487 0.20892 -2.03217e-16 0.0 -3.88251e-19 -8.95196 -17.8682 12.0427 -0.0947873 19.3693 0.321973 -1.46536 -10.7286 -5.76876 2.03217e-16 0.0 3.88251e-19 6.19054 -17.976 13.5736 0.112149 30.6867 -0.796717 4.23275 -16.0869 12.9318
